<svg width="384" height="482" viewBox="19 0 384 482" fill="none" xmlns="http://www.w3.org/2000/svg">
  <g filter="url(#filter0_d)">
    <path d="M19 89.3364C19 41.2711 62.5899 4.84575 110.293 10.7342C143.797 14.8698 180.946 18.3329 211.405 18.3329C241.864 18.3329 279.013 14.8698 312.517 10.7342C360.22 4.84575 403.81 41.2711 403.81 89.3364V404.914C403.81 447.44 369.336 481.914 326.81 481.914H95.9999C53.474 481.914 19 447.44 19 404.914V89.3364Z" fill="white" fill-opacity="0.05"/>
    <path d="M312.64 11.7266C359.782 5.90743 402.81 41.9075 402.811 89.3359V404.914C402.811 446.888 368.784 480.914 326.811 480.914H96C54.0264 480.914 20 446.888 20 404.914V89.3359C20.0003 41.9074 63.0282 5.90734 110.171 11.7266C143.687 15.8637 180.884 19.333 211.405 19.333C241.926 19.333 279.124 15.8637 312.64 11.7266Z" stroke="url(#paint0_linear)" stroke-width="2"/>
  </g>
  <defs>
    <filter id="filter0_d" x="19" y="0" width="384" height="482" filterUnits="userSpaceOnUse" color-interpolation-filters="sRGB">
      <feFlood flood-opacity="0" result="BackgroundImageFix"/>
      <feColorMatrix in="SourceAlpha" type="matrix" values="0 0 0 0 0 0 0 0 0 0 0 0 0 0 0 0 0 0 127 0" result="hardAlpha"/>
      <feOffset dy="9"/>
      <feGaussianBlur stdDeviation="9.2"/>
      <feComposite in2="hardAlpha" operator="out"/>
      <feColorMatrix type="matrix" values="0 0 0 0 0 0 0 0 0 0 0 0 0 0 0 0 0 0 0.25 0"/>
      <feBlend mode="normal" in2="BackgroundImageFix" result="effect1_dropShadow"/>
      <feBlend mode="normal" in="SourceGraphic" in2="effect1_dropShadow" result="shape"/>
    </filter>
    <linearGradient id="paint0_linear" x1="28.019" y1="42.5548" x2="360.223" y2="463.246" gradientUnits="userSpaceOnUse">
      <stop stop-color="white" stop-opacity="0.2"/>
      <stop offset="0.52" stop-opacity="0"/>
      <stop offset="1" stop-color="white" stop-opacity="0.2"/>
    </linearGradient>
  </defs>
</svg>
